<svg xmlns="http://www.w3.org/2000/svg" xmlns:xlink="http://www.w3.org/1999/xlink" width="183.07" height="30.948" viewBox="0 0 183.07 30.948"><defs><style>.a{fill:#f84453;}.b{clip-path:url(#a);}</style><clipPath id="a"><rect class="a" width="183.07" height="30.948"/></clipPath></defs><g transform="translate(0 0)"><g class="b" transform="translate(0 0)"><path class="a" d="M19.611,43.29h.771a.781.781,0,0,0,.779-.776l.018-2.735h2.714A.781.781,0,0,0,24.673,39V38.23a.809.809,0,0,0-.8-.8l-2.706-.018V34.718a.809.809,0,0,0-.806-.8h-.772a.781.781,0,0,0-.778.778l-.018,2.734H16.074a.78.78,0,0,0-.779.778v.772a.81.81,0,0,0,.8.8l2.707.018v2.691a.811.811,0,0,0,.8.8" transform="translate(-10.436 -23.14)"/><path class="a" d="M15.473,0A15.474,15.474,0,0,0,4.533,26.417a15.373,15.373,0,0,0,10.941,4.531h0v0h.009A15.384,15.384,0,0,0,27.4,25.326a.784.784,0,0,0,.177-.574.822.822,0,0,0-.289-.543l-.6-.493a.8.8,0,0,0-.5-.176h-.006a.806.806,0,0,0-.607.274,13.152,13.152,0,1,1,2.776-5.9,1.753,1.753,0,0,1-1.7,1.392,1.717,1.717,0,0,1-1.715-1.715V14.925A4.442,4.442,0,0,0,20.505,10.5a4.492,4.492,0,0,0-3.245,1.4,4.494,4.494,0,0,0-1.406-1.01.774.774,0,0,0-.318-.068h0a.8.8,0,0,0-.72.452l-.318.7a.792.792,0,0,0,0,.639.806.806,0,0,0,.41.416,2.055,2.055,0,0,1,1.2,1.866V19.33a.807.807,0,0,0,.8.806h.771a.783.783,0,0,0,.78-.779V14.926a2.078,2.078,0,0,1,2.072-2.073A2.048,2.048,0,0,1,22.581,14.9v2.666a4.112,4.112,0,0,0,3.213,3.994,4.087,4.087,0,0,0,4.868-3.121l.008-.041A15.474,15.474,0,0,0,15.473,0" transform="translate(0 0)"/><path class="a" d="M119.444,18.079h-6.476a.791.791,0,0,0-.792.789V36.541a.836.836,0,0,0,.828.826h1.341a.789.789,0,0,0,.787-.79l-.024-6.707h4.377c3.66,0,6.122-2.361,6.122-5.877a5.776,5.776,0,0,0-1.638-4.215,6.245,6.245,0,0,0-4.525-1.7m3.212,5.877c0,2.706-2.1,3.109-3.362,3.109h0l-4.162.077V20.883h4.2a3.607,3.607,0,0,1,2.542.856,3.005,3.005,0,0,1,.781,2.217" transform="translate(-76.54 -12.333)"/><path class="a" d="M163.14,34.652h-.869a1.154,1.154,0,0,1-.8-.185c-.148-.146-.207-.438-.207-1V18.916a.83.83,0,0,0-.827-.824h-1.264a.79.79,0,0,0-.79.788V33.453a4.042,4.042,0,0,0,1.06,2.951,3.659,3.659,0,0,0,2.644.976h1.093a.789.789,0,0,0,.787-.788V35.476a.826.826,0,0,0-.824-.824" transform="translate(-108.062 -12.345)"/><path class="a" d="M188.576,36.059l0,0h-1.264a.788.788,0,0,0-.788.787v7.42c0,1.8-.92,2.786-2.589,2.786a2.452,2.452,0,0,1-1.79-.605,2.928,2.928,0,0,1-.686-2.143V36.883a.828.828,0,0,0-.824-.824h-1.264a.788.788,0,0,0-.789.787v7.646a5.291,5.291,0,0,0,1.494,3.917,5.19,5.19,0,0,0,3.752,1.376,5.428,5.428,0,0,0,2.75-.689.838.838,0,0,0,.2.309.811.811,0,0,0,.568.231h1.268a.789.789,0,0,0,.788-.788V36.883a.832.832,0,0,0-.825-.824" transform="translate(-121.844 -24.604)"/><path class="a" d="M224.1,41.176,222.166,41a2.347,2.347,0,0,1-1.464-.481.966.966,0,0,1-.209-.71c0-1.257,1.231-1.52,2.262-1.52l0,0a4.744,4.744,0,0,1,2.867.858.818.818,0,0,0,1.043-.072l.842-.842a.8.8,0,0,0,.23-.616.815.815,0,0,0-.325-.6,7.872,7.872,0,0,0-4.693-1.438c-3.041,0-5.084,1.684-5.084,4.192a3.639,3.639,0,0,0,.926,2.575,5.128,5.128,0,0,0,3.43,1.372l1.979.173a2.062,2.062,0,0,1,1.311.446,1.033,1.033,0,0,1,.225.747c0,.407,0,1.644-2.81,1.644a4.278,4.278,0,0,1-3.327-1.2.844.844,0,0,0-.6-.261.774.774,0,0,0-.558.232l-.87.865a.809.809,0,0,0-.231.565.82.82,0,0,0,.255.584,7.32,7.32,0,0,0,5.41,1.946c3.39,0,5.58-1.7,5.58-4.338a3.738,3.738,0,0,0-.907-2.645,5.106,5.106,0,0,0-3.346-1.3" transform="translate(-148.141 -24.281)"/><path class="a" d="M273.146,18.331h-1.341a.788.788,0,0,0-.788.787V31.8L262.29,18.7a.828.828,0,0,0-.689-.371h-1.338a.789.789,0,0,0-.789.789V36.793a.816.816,0,0,0,.244.584.828.828,0,0,0,.581.241h1.341a.789.789,0,0,0,.788-.79V24.1l8.727,13.143a.824.824,0,0,0,.689.372h1.337a.79.79,0,0,0,.791-.789V19.154a.829.829,0,0,0-.827-.824" transform="translate(-177.045 -12.507)"/><path class="a" d="M318.465,35.841v0c-2.347,0-3.755.628-4.857,2.165a.811.811,0,0,0,.137,1.083l.917.792a.858.858,0,0,0,.643.2.8.8,0,0,0,.55-.333c.6-.889,1.244-1.172,2.649-1.172a2.915,2.915,0,0,1,2.082.57,2.071,2.071,0,0,1,.47,1.554l.063.532h-3.148c-3.061,0-4.962,1.623-4.962,4.241a4.265,4.265,0,0,0,1.1,2.9c.937.969,2.09,1.348,4.117,1.348a5.983,5.983,0,0,0,2.918-.587.822.822,0,0,0,.732.437h1.264a.789.789,0,0,0,.789-.788h0V40.588a4.507,4.507,0,0,0-1.232-3.339,5.811,5.811,0,0,0-4.237-1.408m2.156,10.452a3.176,3.176,0,0,1-2.428.694h0a2.9,2.9,0,0,1-1.991-.5,1.336,1.336,0,0,1-.313-1.01c0-.8.266-1.62,2.268-1.62l2.9-.037v.75a2.461,2.461,0,0,1-.432,1.72" transform="translate(-213.573 -24.453)"/><path class="a" d="M361.427,35.833v0a5.379,5.379,0,0,0-2.713.717.856.856,0,0,0-.2-.326.822.822,0,0,0-.579-.241h-1.269a.789.789,0,0,0-.788.788V48.733a.829.829,0,0,0,.826.826h1.268a.789.789,0,0,0,.788-.789V41.4c0-1.412.744-2.835,2.412-2.835a1.961,1.961,0,0,1,1.677.7.819.819,0,0,0,1.138.014l.922-.918a.81.81,0,0,0,.23-.558.845.845,0,0,0-.244-.579,4.552,4.552,0,0,0-3.465-1.387" transform="translate(-242.822 -24.447)"/><path class="a" d="M398.808,37.214a4.552,4.552,0,0,0-3.465-1.387,5.39,5.39,0,0,0-2.714.717.853.853,0,0,0-.2-.326.827.827,0,0,0-.582-.241H390.58a.789.789,0,0,0-.789.788V48.729a.831.831,0,0,0,.826.826h1.264a.79.79,0,0,0,.79-.788h0V41.395c0-1.412.745-2.836,2.412-2.836a1.963,1.963,0,0,1,1.679.7.817.817,0,0,0,1.137.014l.922-.919a.807.807,0,0,0-.014-1.137Z" transform="translate(-265.964 -24.443)"/><path class="a" d="M425.175,35.84l0,0c-2.347,0-3.754.628-4.858,2.165a.814.814,0,0,0,.137,1.083l.917.795a.866.866,0,0,0,.643.2.8.8,0,0,0,.548-.333,2.662,2.662,0,0,1,2.65-1.172,2.926,2.926,0,0,1,2.085.57,2.075,2.075,0,0,1,.466,1.554l.067.532H424.68c-3.061,0-4.962,1.623-4.962,4.241a4.283,4.283,0,0,0,1.1,2.9c.937.969,2.092,1.347,4.119,1.347a5.977,5.977,0,0,0,2.92-.588.818.818,0,0,0,.732.438h1.264a.789.789,0,0,0,.789-.788h0V40.587a4.511,4.511,0,0,0-1.232-3.339,5.816,5.816,0,0,0-4.239-1.408m2.157,10.452a3.172,3.172,0,0,1-2.427.694h0a2.893,2.893,0,0,1-1.99-.5,1.348,1.348,0,0,1-.314-1.009c0-.8.27-1.62,2.268-1.62l2.9-.037v.75a2.441,2.441,0,0,1-.433,1.72" transform="translate(-286.384 -24.453)"/><path class="a" d="M465.421,28.1h0l-1.872.074V25.094a.832.832,0,0,0-.826-.824h-1.264a.791.791,0,0,0-.789.793h0l.077,3.03h-.927a.789.789,0,0,0-.788.787v.943a.81.81,0,0,0,.244.582.829.829,0,0,0,.593.242h0l.8-.066v7.136a4.042,4.042,0,0,0,1.094,2.957,3.62,3.62,0,0,0,2.61.994h1.086a.788.788,0,0,0,.791-.784v-1.12a.829.829,0,0,0-.828-.823h-.865a1.019,1.019,0,0,1-.753-.215,1.33,1.33,0,0,1-.261-.95l-.08-7.127h2a.792.792,0,0,0,.793-.787v-.944a.807.807,0,0,0-.244-.582.822.822,0,0,0-.585-.241" transform="translate(-313.206 -16.56)"/><path class="a" d="M489.417,17.865h0a1.73,1.73,0,0,0-1.191,2.959,1.765,1.765,0,0,0,1.252.515,1.73,1.73,0,0,0,1.193-2.958,1.771,1.771,0,0,0-1.254-.516" transform="translate(-332.779 -12.19)"/><path class="a" d="M490.7,36.3l0,0h-1.264a.788.788,0,0,0-.788.787V49.055a.81.81,0,0,0,.243.581.822.822,0,0,0,.584.243h1.264a.787.787,0,0,0,.788-.786V37.126a.824.824,0,0,0-.241-.583.833.833,0,0,0-.583-.241" transform="translate(-333.416 -24.77)"/><path class="a" d="M514.7,36.66a.815.815,0,0,0-.679-.358h-1.387a.788.788,0,0,0-.746.528l-2.84,8.271-2.832-8.238a.83.83,0,0,0-.781-.562h-1.391a.779.779,0,0,0-.646.336.8.8,0,0,0-.093.729l4.369,11.967a.829.829,0,0,0,.775.546h1.242a.8.8,0,0,0,.741-.517L514.8,37.4a.793.793,0,0,0-.1-.737" transform="translate(-343.383 -24.77)"/><path class="a" d="M550.416,37.3l0,0a5.257,5.257,0,0,0-3.8-1.469c-3.44,0-5.577,2.652-5.577,6.92a7.429,7.429,0,0,0,1.812,5.456,5.588,5.588,0,0,0,4.1,1.5,6.158,6.158,0,0,0,4.878-2.067.783.783,0,0,0,.226-.605.811.811,0,0,0-.313-.6l-.943-.743a.82.82,0,0,0-1.068.051,3.407,3.407,0,0,1-2.743,1.208,2.94,2.94,0,0,1-2.063-.695,3.706,3.706,0,0,1-1.015-2.41h7.534a.787.787,0,0,0,.788-.787v-.573a7.119,7.119,0,0,0-1.815-5.19m-6.445,3.959a3.766,3.766,0,0,1,.3-1.17v0a2.549,2.549,0,0,1,2.378-1.531,2.5,2.5,0,0,1,2.336,1.488,4.923,4.923,0,0,1,.339,1.171Z" transform="translate(-369.161 -24.448)"/></g></g></svg>