<svg width="32" height="32" viewBox="0 0 32 32" fill="none" xmlns="http://www.w3.org/2000/svg">
<path d="M8 29.3333H25.3333C26.0406 29.3333 26.7189 29.0524 27.219 28.5523C27.719 28.0522 28 27.3739 28 26.6667V5.33332C28 4.62608 27.719 3.9478 27.219 3.4477C26.7189 2.94761 26.0406 2.66666 25.3333 2.66666H6.66667C5.95942 2.66666 5.28115 2.94761 4.78105 3.4477C4.28095 3.9478 4 4.62608 4 5.33332V26.6667C4 27.3739 4.28095 28.0522 4.78105 28.5523C5.28115 29.0524 5.95942 29.3333 6.66667 29.3333H8ZM16 6.66532C18.196 6.66532 20 8.46666 20 10.6653C20 12.8627 18.196 14.6667 16 14.6667C13.804 14.6667 12 12.8627 12 10.6653C12 8.46666 13.804 6.66532 16 6.66532ZM8 23C8 20.0413 11.6067 17 16 17C20.3933 17 24 20.0413 24 23V24H8V23Z" fill="black"/>
</svg>
